<svg width="124" height="31" viewBox="0 0 124 31" fill="none" xmlns="http://www.w3.org/2000/svg">
<mask id="mask0_1_1766" style="mask-type:alpha" maskUnits="userSpaceOnUse" x="0" y="0" width="124" height="31">
<path d="M3.44993 16.7512C6.57972 16.8394 6.75271 20.5054 10.4352 22.9642C14.1176 25.423 17.9641 24.9568 21.0586 23.5079C23.0246 22.574 25.1103 20.3648 26.1406 17.7294C23.8819 21.1168 21.423 23.3464 17.4936 23.7114C15.5783 23.8889 13.4426 23.5881 11.7528 22.6155C14.4181 19.0869 19.0412 18.9195 22.8885 17.2264C24.6054 16.4206 27.3619 14.7563 28.3313 13.0446C28.5612 12.6383 28.6776 12.1746 28.8811 11.756C30.4223 18.3826 27.2016 25.4163 21.5611 28.6431C12.6787 33.7247 1.68278 27.9456 0.188208 17.762C1.04555 17.0894 2.36342 16.7466 3.44993 16.7512Z" fill="url(#paint0_linear_1_1766)"/>
<path d="M7.92906 18.8247C8.73126 19.9193 9.5711 21.0653 10.7991 21.8172L11.1021 21.9657C12.0936 20.4842 14.3624 19.5817 15.1209 19.3061C13.1183 19.016 11.5043 17.4579 11.0471 15.4337C10.8661 14.7545 10.848 14.0371 11.0001 13.3189C11.4233 10.9551 13.4104 9.16593 15.798 9.16593C18.1259 9.16593 20.0732 10.8668 20.5613 13.1429C21.0862 12.9285 22.9724 12.0767 24.6542 10.2964C26.6305 8.20415 27.007 7.12108 27.007 7.12108C27.007 7.12108 25.8907 5.46156 25.6894 5.22818C20.5944 -0.666879 12.2323 -1.7768 6.06394 2.92379C1.91925 6.08175 -0.511448 11.3069 0.0911106 16.6854C1.83425 15.8464 2.43776 15.6525 3.87959 15.7552C5.77861 15.8904 6.81772 17.3083 7.92906 18.8247Z" fill="#4E3D28"/>
<path d="M116.389 24.8697C115.556 24.8697 114.813 24.7166 114.161 24.4104C113.508 24.0982 112.992 23.6389 112.612 23.0325C112.238 22.4201 112.051 21.6577 112.051 20.7451C112.051 19.9766 112.184 19.3312 112.451 18.8089C112.717 18.2865 113.08 17.8663 113.54 17.5481C113.999 17.2299 114.521 16.9897 115.105 16.8276C115.695 16.6655 116.313 16.5515 116.959 16.4854C117.719 16.4014 118.332 16.3233 118.797 16.2513C119.262 16.1732 119.599 16.0591 119.809 15.909C120.019 15.759 120.124 15.5368 120.124 15.2426V15.1886C120.124 14.6182 119.954 14.177 119.614 13.8648C119.279 13.5526 118.803 13.3965 118.184 13.3965C117.532 13.3965 117.013 13.5496 116.628 13.8558C116.242 14.1559 115.987 14.5342 115.862 14.9905L112.51 14.7023C112.68 13.8618 113.015 13.1353 113.514 12.5229C114.013 11.9045 114.657 11.4302 115.445 11.1C116.239 10.7638 117.158 10.5957 118.201 10.5957C118.927 10.5957 119.622 10.6858 120.286 10.8659C120.955 11.046 121.547 11.3252 122.064 11.7034C122.585 12.0816 122.996 12.5679 123.297 13.1623C123.598 13.7507 123.748 14.4561 123.748 15.2787V24.6085H120.311V22.6903H120.209C119.999 23.1226 119.718 23.5038 119.367 23.834C119.015 24.1582 118.593 24.4134 118.099 24.5995C117.606 24.7796 117.036 24.8697 116.389 24.8697ZM117.427 22.222C117.96 22.222 118.431 22.111 118.839 21.8888C119.248 21.6607 119.568 21.3545 119.801 20.9702C120.033 20.586 120.149 20.1507 120.149 19.6644V18.1965C120.036 18.2745 119.88 18.3466 119.682 18.4126C119.489 18.4727 119.27 18.5297 119.027 18.5837C118.783 18.6318 118.539 18.6768 118.295 18.7188C118.051 18.7548 117.83 18.7879 117.631 18.8179C117.206 18.8839 116.835 18.989 116.517 19.1331C116.199 19.2772 115.953 19.4723 115.777 19.7184C115.601 19.9586 115.513 20.2588 115.513 20.619C115.513 21.1413 115.692 21.5406 116.049 21.8168C116.412 22.0869 116.871 22.222 117.427 22.222Z" fill="#365E51"/>
<path d="M103.23 24.609V10.7763H106.744V13.1898H106.88C107.118 12.3312 107.518 11.6828 108.079 11.2445C108.641 10.8003 109.287 10.5781 110.019 10.5781C110.201 10.5781 110.396 10.5901 110.606 10.6141C110.816 10.6382 111 10.6712 111.159 10.7132V14.1174C110.989 14.0633 110.753 14.0153 110.453 13.9733C110.152 13.9312 109.877 13.9102 109.628 13.9102C109.095 13.9102 108.618 14.0333 108.199 14.2795C107.785 14.5196 107.456 14.8558 107.212 15.2881C106.974 15.7204 106.854 16.2187 106.854 16.783V24.609H103.23Z" fill="#365E51"/>
<path d="M100.869 10.775V13.6568H93V10.775H100.869ZM94.7865 7.46094H98.4105V20.3571C98.4105 20.7113 98.4615 20.9875 98.5636 21.1856C98.6657 21.3777 98.8074 21.5128 98.9889 21.5908C99.1761 21.6689 99.3916 21.7079 99.6355 21.7079C99.8056 21.7079 99.9757 21.6929 100.146 21.6629C100.316 21.6269 100.446 21.5998 100.537 21.5818L101.107 24.4366C100.926 24.4967 100.67 24.5657 100.342 24.6438C100.013 24.7278 99.6128 24.7788 99.1421 24.7969C98.2687 24.8329 97.503 24.7098 96.8452 24.4276C96.193 24.1454 95.6854 23.7072 95.3224 23.1128C94.9594 22.5184 94.7808 21.7679 94.7865 20.8614V7.46094Z" fill="#365E51"/>
<path d="M87.3939 24.6086V10.7759H91.0179V24.6086H87.3939ZM89.2144 8.99277C88.6756 8.99277 88.2134 8.80365 87.8278 8.42541C87.4478 8.04117 87.2578 7.58188 87.2578 7.04755C87.2578 6.51921 87.4478 6.06593 87.8278 5.68769C88.2134 5.30345 88.6756 5.11133 89.2144 5.11133C89.7532 5.11133 90.2126 5.30345 90.5926 5.68769C90.9782 6.06593 91.171 6.51921 91.171 7.04755C91.171 7.58188 90.9782 8.04117 90.5926 8.42541C90.2126 8.80365 89.7532 8.99277 89.2144 8.99277Z" fill="#365E51"/>
<path d="M65.5469 24.6085V10.7758H69.0007V13.2164H69.1538C69.4261 12.4058 69.8798 11.7664 70.515 11.2981C71.1502 10.8299 71.9101 10.5957 72.7948 10.5957C73.6909 10.5957 74.4537 10.8329 75.0832 11.3072C75.7127 11.7754 76.1324 12.4118 76.3423 13.2164H76.4784C76.7449 12.4239 77.227 11.7905 77.9246 11.3162C78.6278 10.8359 79.4587 10.5957 80.4171 10.5957C81.6365 10.5957 82.6261 11.007 83.3861 11.8295C84.1517 12.646 84.5345 13.8047 84.5345 15.3057V24.6085H80.919V16.0621C80.919 15.2937 80.7262 14.7173 80.3406 14.3331C79.9549 13.9488 79.4728 13.7567 78.8944 13.7567C78.2365 13.7567 77.7232 13.9788 77.3546 14.4231C76.986 14.8614 76.8016 15.4408 76.8016 16.1612V24.6085H73.2882V15.9811C73.2882 15.3027 73.1039 14.7623 72.7353 14.3601C72.3723 13.9578 71.8931 13.7567 71.2976 13.7567C70.8949 13.7567 70.532 13.8648 70.2087 14.0809C69.8911 14.291 69.6387 14.5882 69.4516 14.9725C69.2644 15.3507 69.1709 15.795 69.1709 16.3053V24.6085H65.5469Z" fill="#365E51"/>
<path d="M59.015 24.6086V10.7759H62.639V24.6086H59.015ZM60.8355 8.99277C60.2967 8.99277 59.8345 8.80365 59.4489 8.42541C59.0689 8.04117 58.8789 7.58188 58.8789 7.04755C58.8789 6.51921 59.0689 6.06593 59.4489 5.68769C59.8345 5.30345 60.2967 5.11133 60.8355 5.11133C61.3743 5.11133 61.8337 5.30345 62.2137 5.68769C62.5993 6.06593 62.7921 6.51921 62.7921 7.04755C62.7921 7.58188 62.5993 8.04117 62.2137 8.42541C61.8337 8.80365 61.3743 8.99277 60.8355 8.99277Z" fill="#365E51"/>
<path d="M56.1162 6.16504V24.6087H52.4922V6.16504H56.1162Z" fill="#365E51"/>
<path d="M49.9165 12.6223H46.1904C46.1224 12.112 45.9834 11.6587 45.7736 11.2625C45.5637 10.8602 45.2943 10.518 44.9654 10.2358C44.6365 9.95363 44.2565 9.73749 43.8255 9.5874C43.4001 9.43731 42.9379 9.36226 42.4388 9.36226C41.5371 9.36226 40.7516 9.59941 40.0824 10.0737C39.4132 10.542 38.8942 11.2264 38.5256 12.127C38.157 13.0216 37.9726 14.1082 37.9726 15.3871C37.9726 16.7019 38.157 17.8066 38.5256 18.7011C38.8999 19.5957 39.4217 20.2711 40.0909 20.7274C40.7601 21.1837 41.5342 21.4118 42.4133 21.4118C42.9067 21.4118 43.3632 21.3428 43.7829 21.2047C44.2083 21.0666 44.5854 20.8655 44.9144 20.6013C45.2433 20.3312 45.5155 20.004 45.731 19.6197C45.9522 19.2355 46.1053 18.7972 46.1904 18.3049L49.9165 18.3229C49.8201 19.1694 49.579 19.9859 49.1934 20.7724C48.8134 21.5529 48.3001 22.2524 47.6536 22.8708C47.0128 23.4831 46.2471 23.9695 45.3567 24.3297C44.472 24.6839 43.471 24.861 42.3538 24.861C40.7998 24.861 39.4103 24.4888 38.1853 23.7443C36.966 22.9998 36.0019 21.9222 35.2929 20.5113C34.5897 19.1004 34.2381 17.3923 34.2381 15.3871C34.2381 13.3758 34.5954 11.6647 35.31 10.2538C36.0245 8.84293 36.9943 7.76825 38.2193 7.02979C39.4444 6.28532 40.8225 5.91309 42.3538 5.91309C43.3632 5.91309 44.299 6.06318 45.1611 6.36337C46.0288 6.66356 46.7972 7.10183 47.4665 7.6782C48.1357 8.24856 48.6801 8.948 49.0998 9.77652C49.5252 10.605 49.7974 11.5536 49.9165 12.6223Z" fill="#365E51"/>
</mask>
<g mask="url(#mask0_1_1766)">
<rect x="-9.44531" y="-9" width="143.583" height="54" fill="white"/>
</g>
<defs>
<linearGradient id="paint0_linear_1_1766" x1="29.0706" y1="4.48056" x2="0.562048" y2="12.182" gradientUnits="userSpaceOnUse">
<stop stop-color="#B5CC34"/>
<stop offset="0.56" stop-color="#569642"/>
<stop offset="0.67" stop-color="#41803D"/>
<stop offset="1" stop-color="#024335"/>
</linearGradient>
</defs>
</svg>
