<svg viewBox="1 13.5 21 5" xmlns="http://www.w3.org/2000/svg">
    <g transform="translate(0, 4) scale(0.048)">
        <path fill="#87746A" d="M74.1,270h6.4l7.3-20.4l7.4,20.4h6.4l14.5-40.1h-3.7l-11.9,32.6L88.3,230h-7.6l5.3,14.5l-6.6,17.9L67.2,230H55.8v1.2c4.4,0.7,4.4,0.9,5.7,4.3L74.1,270z" />
        <path fill="#87746A" d="M133.5,228.5c-14.2,0-18.1,8.3-18.1,21.6c0,13.3,3.9,21.3,18.1,21.3c13.5,0,17.7-8,17.7-21.3C151,236.9,147,228.5,133.5,228.5z M133.5,268.4c-8.9,0-9.6-10.3-9.6-18.4c0-8.3,0.7-18.4,9.6-18.4c8.7,0,9.2,10.5,9.2,18.4C142.7,258,142.2,268.4,133.5,268.4z" />
        <path fill="#87746A" d="M176.6,251.4c6.4-0.7,9.9-4.1,9.9-10.8c0-10.6-12.4-10.6-16.8-10.6h-13.1V270h7.8v-37.2h5c5,0,8.7,1.8,8.7,8.2c0,7.3-5.5,8.7-9.2,8.7h-1.1l12.8,20.4h8.5L176.6,251.4z" />
        <path fill="#87746A" d="M206,267.2c-4.1,0-4.1,0-4.1-4.4V230h-7.8V270h23.8v-2.8H206z" />
        <path fill="#87746A" d="M236.3,230h-13.8V270h11.9c11.7,0,21.6-1.2,21.6-20.2C256,233,247.7,230,236.3,230z M234.6,267.2c-4.1,0-4.1-1.6-4.1-3.9v-30.5h5c11.2,0,12.4,6.7,12.4,17.2C247.7,262.1,245.4,267.2,234.6,267.2z" />
        <path fill="#F8981D" d="M279.1,268.4c-8.9,0-9.6-10.3-9.6-18.4c0-8.3,0.7-18.4,9.6-18.4c8.7,0,9.2,10.5,9.2,18.4C288.3,258,287.8,268.4,279.1,268.4z M296.8,250.2c0-13.3-4.1-21.6-17.7-21.6c-14.2,0-18.1,8.3-18.1,21.6c0,13.3,3.9,21.3,18.1,21.3h19.5v-1.2c-4.4-0.7-7.8-1.4-5.9-4.1C295.8,262.2,296.8,256.9,296.8,250.2" />
        <path fill="#F8981D" d="M328.7,230V256c0,6-0.2,12.6-10.1,12.6c-8.5,0-8.5-6.6-8.5-12.6V230h-7.8v27.7c0,10.8,5.9,13.8,16.3,13.8c14.2,0,14.4-8.9,14.4-16.8V230H328.7z" />
        <path fill="#F8981D" d="M370.8,230l-4.6,12.6h-14.7l-4.8-12.6h-11.3v1.2c4.4,0.7,4.4,0.9,5.7,4.3l12.6,34.6h6.4l14.7-40.1C374.7,230,370.8,230,370.8,230z M358.9,262.6l-6.4-17.2h12.8L358.9,262.6z" />
        <path fill="#F8981D" d="M408.9,230V270H402l-19.7-33.9h-0.2V270h-3.7V230h7.8l18.8,32.5h0.2V230H408.9z" />
        <path fill="#F8981D" d="M431.9,232.8V270h-7.8v-37.2h-12.2V230h32.3v2.8H431.9z" />
    </g>
</svg>
