{"asset":{"version":"2.0","generator":"transient-stack-placeholder","extras":{"note":"Placeholder — replace with Blender Draco export","pipeline":"Blender → glTF 2.0 → gltf-transform draco + ktx2","name":"BatteryCell","module":"batteries","color":[0.95,0.78,0.35,1]}},"scene":0,"scenes":[{"nodes":[0]}],"nodes":[{"mesh":0,"name":"BatteryCell"}],"meshes":[{"name":"BatteryCell","primitives":[{"attributes":{"POSITION":1},"indices":0,"material":0}]}],"materials":[{"name":"Default","pbrMetallicRoughness":{"baseColorFactor":[0.95,0.78,0.35,1],"metallicFactor":0.35,"roughnessFactor":0.45}}],"accessors":[{"bufferView":0,"componentType":5123,"count":120,"type":"SCALAR"},{"bufferView":1,"componentType":5126,"count":42,"type":"VEC3","max":[0.2800000011920929,0.550000011920929,0.2800000011920929],"min":[-0.2800000011920929,-0.550000011920929,-0.2800000011920929]}],"bufferViews":[{"buffer":0,"byteOffset":504,"byteLength":240,"target":34963},{"buffer":0,"byteOffset":0,"byteLength":504,"target":34962}],"buffers":[{"byteLength":744,"uri":"data:application/octet-stream;base64,"}]}