{"asset":{"version":"2.0","generator":"transient-stack-placeholder","extras":{"note":"Placeholder — replace with Blender Draco export","pipeline":"Blender → glTF 2.0 → gltf-transform draco + ktx2","name":"ReactorVessel","module":"nuclear","color":[0.35,0.85,0.6,1]}},"scene":0,"scenes":[{"nodes":[0]}],"nodes":[{"mesh":0,"name":"ReactorVessel"}],"meshes":[{"name":"ReactorVessel","primitives":[{"attributes":{"POSITION":1},"indices":0,"material":0}]}],"materials":[{"name":"Default","pbrMetallicRoughness":{"baseColorFactor":[0.35,0.85,0.6,1],"metallicFactor":0.35,"roughnessFactor":0.45}}],"accessors":[{"bufferView":0,"componentType":5123,"count":144,"type":"SCALAR"},{"bufferView":1,"componentType":5126,"count":50,"type":"VEC3","max":[0.699999988079071,0.800000011920929,0.699999988079071],"min":[-0.699999988079071,-0.800000011920929,-0.699999988079071]}],"bufferViews":[{"buffer":0,"byteOffset":600,"byteLength":288,"target":34963},{"buffer":0,"byteOffset":0,"byteLength":600,"target":34962}],"buffers":[{"byteLength":888,"uri":"data:application/octet-stream;base64,"}]}