{"asset":{"version":"2.0","generator":"transient-stack-placeholder","extras":{"note":"Placeholder — replace with Blender Draco export","pipeline":"Blender → glTF 2.0 → gltf-transform draco + ktx2","name":"SatelliteBus","module":"satellites","color":[0.45,0.55,0.85,1]}},"scene":0,"scenes":[{"nodes":[0]}],"nodes":[{"mesh":0,"name":"SatelliteBus"}],"meshes":[{"name":"SatelliteBus","primitives":[{"attributes":{"POSITION":1},"indices":0,"material":0}]}],"materials":[{"name":"Default","pbrMetallicRoughness":{"baseColorFactor":[0.45,0.55,0.85,1],"metallicFactor":0.35,"roughnessFactor":0.45}}],"accessors":[{"bufferView":0,"componentType":5123,"count":36,"type":"SCALAR"},{"bufferView":1,"componentType":5126,"count":24,"type":"VEC3","max":[0.800000011920929,0.05999999865889549,0.5],"min":[-0.800000011920929,-0.05999999865889549,-0.5]}],"bufferViews":[{"buffer":0,"byteOffset":288,"byteLength":72,"target":34963},{"buffer":0,"byteOffset":0,"byteLength":288,"target":34962}],"buffers":[{"byteLength":360,"uri":"data:application/octet-stream;base64,"}]}